<svg width="360" height="143" viewBox="0 0 360 143" fill="none" xmlns="http://www.w3.org/2000/svg">
<path d="M58.0109 3.3L45.6509 45H37.9109L29.1509 13.44L19.8509 45L12.1709 45.06L0.350938 3.3H7.61094L16.2509 37.26L25.6109 3.3H33.2909L41.9909 37.08L50.6909 3.3H58.0109ZM93.9523 27.66C93.9523 28.9 93.8723 30.02 93.7123 31.02H68.4523C68.6523 33.66 69.6323 35.78 71.3923 37.38C73.1523 38.98 75.3123 39.78 77.8723 39.78C81.5523 39.78 84.1523 38.24 85.6723 35.16H93.0523C92.0523 38.2 90.2323 40.7 87.5923 42.66C84.9923 44.58 81.7523 45.54 77.8723 45.54C74.7123 45.54 71.8723 44.84 69.3523 43.44C66.8723 42 64.9123 40 63.4723 37.44C62.0723 34.84 61.3723 31.84 61.3723 28.44C61.3723 25.04 62.0523 22.06 63.4123 19.5C64.8123 16.9 66.7523 14.9 69.2323 13.5C71.7523 12.1 74.6323 11.4 77.8723 11.4C80.9923 11.4 83.7723 12.08 86.2123 13.44C88.6523 14.8 90.5523 16.72 91.9123 19.2C93.2723 21.64 93.9523 24.46 93.9523 27.66ZM86.8123 25.5C86.7723 22.98 85.8723 20.96 84.1123 19.44C82.3523 17.92 80.1723 17.16 77.5723 17.16C75.2123 17.16 73.1923 17.92 71.5123 19.44C69.8323 20.92 68.8323 22.94 68.5123 25.5H86.8123ZM107.524 0.599999V45H100.684V0.599999H107.524ZM114.224 28.44C114.224 25.04 114.904 22.06 116.264 19.5C117.664 16.9 119.584 14.9 122.024 13.5C124.464 12.1 127.264 11.4 130.424 11.4C134.424 11.4 137.724 12.36 140.324 14.28C142.964 16.16 144.744 18.86 145.664 22.38H138.284C137.684 20.74 136.724 19.46 135.404 18.54C134.084 17.62 132.424 17.16 130.424 17.16C127.624 17.16 125.384 18.16 123.704 20.16C122.064 22.12 121.244 24.88 121.244 28.44C121.244 32 122.064 34.78 123.704 36.78C125.384 38.78 127.624 39.78 130.424 39.78C134.384 39.78 137.004 38.04 138.284 34.56H145.664C144.704 37.92 142.904 40.6 140.264 42.6C137.624 44.56 134.344 45.54 130.424 45.54C127.264 45.54 124.464 44.84 122.024 43.44C119.584 42 117.664 40 116.264 37.44C114.904 34.84 114.224 31.84 114.224 28.44ZM166.82 45.54C163.7 45.54 160.88 44.84 158.36 43.44C155.84 42 153.86 40 152.42 37.44C150.98 34.84 150.26 31.84 150.26 28.44C150.26 25.08 151 22.1 152.48 19.5C153.96 16.9 155.98 14.9 158.54 13.5C161.1 12.1 163.96 11.4 167.12 11.4C170.28 11.4 173.14 12.1 175.7 13.5C178.26 14.9 180.28 16.9 181.76 19.5C183.24 22.1 183.98 25.08 183.98 28.44C183.98 31.8 183.22 34.78 181.7 37.38C180.18 39.98 178.1 42 175.46 43.44C172.86 44.84 169.98 45.54 166.82 45.54ZM166.82 39.6C168.58 39.6 170.22 39.18 171.74 38.34C173.3 37.5 174.56 36.24 175.52 34.56C176.48 32.88 176.96 30.84 176.96 28.44C176.96 26.04 176.5 24.02 175.58 22.38C174.66 20.7 173.44 19.44 171.92 18.6C170.4 17.76 168.76 17.34 167 17.34C165.24 17.34 163.6 17.76 162.08 18.6C160.6 19.44 159.42 20.7 158.54 22.38C157.66 24.02 157.22 26.04 157.22 28.44C157.22 32 158.12 34.76 159.92 36.72C161.76 38.64 164.06 39.6 166.82 39.6ZM230.762 11.4C233.362 11.4 235.682 11.94 237.722 13.02C239.802 14.1 241.422 15.7 242.582 17.82C243.782 19.94 244.382 22.5 244.382 25.5V45H237.602V26.52C237.602 23.56 236.862 21.3 235.382 19.74C233.902 18.14 231.882 17.34 229.322 17.34C226.762 17.34 224.722 18.14 223.202 19.74C221.722 21.3 220.982 23.56 220.982 26.52V45H214.202V26.52C214.202 23.56 213.462 21.3 211.982 19.74C210.502 18.14 208.482 17.34 205.922 17.34C203.362 17.34 201.322 18.14 199.802 19.74C198.322 21.3 197.582 23.56 197.582 26.52V45H190.742V11.94H197.582V15.72C198.702 14.36 200.122 13.3 201.842 12.54C203.562 11.78 205.402 11.4 207.362 11.4C210.002 11.4 212.362 11.96 214.442 13.08C216.522 14.2 218.122 15.82 219.242 17.94C220.242 15.94 221.802 14.36 223.922 13.2C226.042 12 228.322 11.4 230.762 11.4ZM283.386 27.66C283.386 28.9 283.306 30.02 283.146 31.02H257.886C258.086 33.66 259.066 35.78 260.826 37.38C262.586 38.98 264.746 39.78 267.306 39.78C270.986 39.78 273.586 38.24 275.106 35.16H282.486C281.486 38.2 279.666 40.7 277.026 42.66C274.426 44.58 271.186 45.54 267.306 45.54C264.146 45.54 261.306 44.84 258.786 43.44C256.306 42 254.346 40 252.906 37.44C251.506 34.84 250.806 31.84 250.806 28.44C250.806 25.04 251.486 22.06 252.846 19.5C254.246 16.9 256.186 14.9 258.666 13.5C261.186 12.1 264.066 11.4 267.306 11.4C270.426 11.4 273.206 12.08 275.646 13.44C278.086 14.8 279.986 16.72 281.346 19.2C282.706 21.64 283.386 24.46 283.386 27.66ZM276.246 25.5C276.206 22.98 275.306 20.96 273.546 19.44C271.786 17.92 269.606 17.16 267.006 17.16C264.646 17.16 262.626 17.92 260.946 19.44C259.266 20.92 258.266 22.94 257.946 25.5H276.246ZM313.683 17.52V35.82C313.683 37.06 313.963 37.96 314.523 38.52C315.123 39.04 316.123 39.3 317.523 39.3H321.723V45H316.323C313.243 45 310.883 44.28 309.243 42.84C307.603 41.4 306.783 39.06 306.783 35.82V17.52H302.883V11.94H306.783V3.72H313.683V11.94H321.723V17.52H313.683ZM342.367 45.54C339.247 45.54 336.427 44.84 333.907 43.44C331.387 42 329.407 40 327.967 37.44C326.527 34.84 325.807 31.84 325.807 28.44C325.807 25.08 326.547 22.1 328.027 19.5C329.507 16.9 331.527 14.9 334.087 13.5C336.647 12.1 339.507 11.4 342.667 11.4C345.827 11.4 348.687 12.1 351.247 13.5C353.807 14.9 355.827 16.9 357.307 19.5C358.787 22.1 359.527 25.08 359.527 28.44C359.527 31.8 358.767 34.78 357.247 37.38C355.727 39.98 353.647 42 351.007 43.44C348.407 44.84 345.527 45.54 342.367 45.54ZM342.367 39.6C344.127 39.6 345.767 39.18 347.287 38.34C348.847 37.5 350.107 36.24 351.067 34.56C352.027 32.88 352.507 30.84 352.507 28.44C352.507 26.04 352.047 24.02 351.127 22.38C350.207 20.7 348.987 19.44 347.467 18.6C345.947 17.76 344.307 17.34 342.547 17.34C340.787 17.34 339.147 17.76 337.627 18.6C336.147 19.44 334.967 20.7 334.087 22.38C333.207 24.02 332.767 26.04 332.767 28.44C332.767 32 333.667 34.76 335.467 36.72C337.307 38.64 339.607 39.6 342.367 39.6ZM49.3588 126.48H31.8988L28.8988 135H21.7588L36.6988 93.24H44.6188L59.5588 135H52.3588L49.3588 126.48ZM47.4388 120.9L40.6588 101.52L33.8188 120.9H47.4388ZM63.7747 118.44C63.7747 115.04 64.4547 112.06 65.8147 109.5C67.2147 106.9 69.1347 104.9 71.5747 103.5C74.0147 102.1 76.8147 101.4 79.9747 101.4C83.9747 101.4 87.2747 102.36 89.8747 104.28C92.5147 106.16 94.2947 108.86 95.2147 112.38H87.8347C87.2347 110.74 86.2747 109.46 84.9547 108.54C83.6347 107.62 81.9747 107.16 79.9747 107.16C77.1747 107.16 74.9347 108.16 73.2547 110.16C71.6147 112.12 70.7947 114.88 70.7947 118.44C70.7947 122 71.6147 124.78 73.2547 126.78C74.9347 128.78 77.1747 129.78 79.9747 129.78C83.9347 129.78 86.5547 128.04 87.8347 124.56H95.2147C94.2547 127.92 92.4547 130.6 89.8147 132.6C87.1747 134.56 83.8947 135.54 79.9747 135.54C76.8147 135.54 74.0147 134.84 71.5747 133.44C69.1347 132 67.2147 130 65.8147 127.44C64.4547 124.84 63.7747 121.84 63.7747 118.44ZM99.7513 118.32C99.7513 115 100.431 112.06 101.791 109.5C103.191 106.94 105.071 104.96 107.431 103.56C109.831 102.12 112.471 101.4 115.351 101.4C117.951 101.4 120.211 101.92 122.131 102.96C124.091 103.96 125.651 105.22 126.811 106.74V101.94H133.711V135H126.811V130.08C125.651 131.64 124.071 132.94 122.071 133.98C120.071 135.02 117.791 135.54 115.231 135.54C112.391 135.54 109.791 134.82 107.431 133.38C105.071 131.9 103.191 129.86 101.791 127.26C100.431 124.62 99.7513 121.64 99.7513 118.32ZM126.811 118.44C126.811 116.16 126.331 114.18 125.371 112.5C124.451 110.82 123.231 109.54 121.711 108.66C120.191 107.78 118.551 107.34 116.791 107.34C115.031 107.34 113.391 107.78 111.871 108.66C110.351 109.5 109.111 110.76 108.151 112.44C107.231 114.08 106.771 116.04 106.771 118.32C106.771 120.6 107.231 122.6 108.151 124.32C109.111 126.04 110.351 127.36 111.871 128.28C113.431 129.16 115.071 129.6 116.791 129.6C118.551 129.6 120.191 129.16 121.711 128.28C123.231 127.4 124.451 126.12 125.371 124.44C126.331 122.72 126.811 120.72 126.811 118.44ZM140.415 118.32C140.415 115 141.095 112.06 142.455 109.5C143.855 106.94 145.735 104.96 148.095 103.56C150.495 102.12 153.155 101.4 156.075 101.4C158.235 101.4 160.355 101.88 162.435 102.84C164.555 103.76 166.235 105 167.475 106.56V90.6H174.375V135H167.475V130.02C166.355 131.62 164.795 132.94 162.795 133.98C160.835 135.02 158.575 135.54 156.015 135.54C153.135 135.54 150.495 134.82 148.095 133.38C145.735 131.9 143.855 129.86 142.455 127.26C141.095 124.62 140.415 121.64 140.415 118.32ZM167.475 118.44C167.475 116.16 166.995 114.18 166.035 112.5C165.115 110.82 163.895 109.54 162.375 108.66C160.855 107.78 159.215 107.34 157.455 107.34C155.695 107.34 154.055 107.78 152.535 108.66C151.015 109.5 149.775 110.76 148.815 112.44C147.895 114.08 147.435 116.04 147.435 118.32C147.435 120.6 147.895 122.6 148.815 124.32C149.775 126.04 151.015 127.36 152.535 128.28C154.095 129.16 155.735 129.6 157.455 129.6C159.215 129.6 160.855 129.16 162.375 128.28C163.895 127.4 165.115 126.12 166.035 124.44C166.995 122.72 167.475 120.72 167.475 118.44ZM213.659 117.66C213.659 118.9 213.579 120.02 213.419 121.02H188.159C188.359 123.66 189.339 125.78 191.099 127.38C192.859 128.98 195.019 129.78 197.579 129.78C201.259 129.78 203.859 128.24 205.379 125.16H212.759C211.759 128.2 209.939 130.7 207.299 132.66C204.699 134.58 201.459 135.54 197.579 135.54C194.419 135.54 191.579 134.84 189.059 133.44C186.579 132 184.619 130 183.179 127.44C181.779 124.84 181.079 121.84 181.079 118.44C181.079 115.04 181.759 112.06 183.119 109.5C184.519 106.9 186.459 104.9 188.939 103.5C191.459 102.1 194.339 101.4 197.579 101.4C200.699 101.4 203.479 102.08 205.919 103.44C208.359 104.8 210.259 106.72 211.619 109.2C212.979 111.64 213.659 114.46 213.659 117.66ZM206.519 115.5C206.479 112.98 205.579 110.96 203.819 109.44C202.059 107.92 199.879 107.16 197.279 107.16C194.919 107.16 192.899 107.92 191.219 109.44C189.539 110.92 188.539 112.94 188.219 115.5H206.519ZM260.411 101.4C263.011 101.4 265.331 101.94 267.371 103.02C269.451 104.1 271.071 105.7 272.231 107.82C273.431 109.94 274.031 112.5 274.031 115.5V135H267.251V116.52C267.251 113.56 266.511 111.3 265.031 109.74C263.551 108.14 261.531 107.34 258.971 107.34C256.411 107.34 254.371 108.14 252.851 109.74C251.371 111.3 250.631 113.56 250.631 116.52V135H243.851V116.52C243.851 113.56 243.111 111.3 241.631 109.74C240.151 108.14 238.131 107.34 235.571 107.34C233.011 107.34 230.971 108.14 229.451 109.74C227.971 111.3 227.231 113.56 227.231 116.52V135H220.391V101.94H227.231V105.72C228.351 104.36 229.771 103.3 231.491 102.54C233.211 101.78 235.051 101.4 237.011 101.4C239.651 101.4 242.011 101.96 244.091 103.08C246.171 104.2 247.771 105.82 248.891 107.94C249.891 105.94 251.451 104.36 253.571 103.2C255.691 102 257.971 101.4 260.411 101.4ZM286.214 97.56C284.974 97.56 283.934 97.14 283.094 96.3C282.254 95.46 281.834 94.42 281.834 93.18C281.834 91.94 282.254 90.9 283.094 90.06C283.934 89.22 284.974 88.8 286.214 88.8C287.414 88.8 288.434 89.22 289.274 90.06C290.114 90.9 290.534 91.94 290.534 93.18C290.534 94.42 290.114 95.46 289.274 96.3C288.434 97.14 287.414 97.56 286.214 97.56ZM289.574 101.94V135H282.734V101.94H289.574ZM330.835 142.56L323.515 134.64C321.715 135.16 319.735 135.42 317.575 135.42C313.695 135.42 310.115 134.52 306.835 132.72C303.595 130.88 301.015 128.34 299.095 125.1C297.215 121.82 296.275 118.14 296.275 114.06C296.275 109.98 297.215 106.32 299.095 103.08C301.015 99.84 303.595 97.32 306.835 95.52C310.115 93.68 313.695 92.76 317.575 92.76C321.495 92.76 325.075 93.68 328.315 95.52C331.595 97.32 334.175 99.84 336.055 103.08C337.935 106.32 338.875 109.98 338.875 114.06C338.875 117.9 338.035 121.38 336.355 124.5C334.715 127.58 332.435 130.06 329.515 131.94L339.535 142.56H330.835ZM303.295 114.06C303.295 117.14 303.895 119.86 305.095 122.22C306.335 124.54 308.035 126.34 310.195 127.62C312.355 128.86 314.815 129.48 317.575 129.48C320.335 129.48 322.795 128.86 324.955 127.62C327.115 126.34 328.795 124.54 329.995 122.22C331.235 119.86 331.855 117.14 331.855 114.06C331.855 110.98 331.235 108.28 329.995 105.96C328.795 103.64 327.115 101.86 324.955 100.62C322.795 99.38 320.335 98.76 317.575 98.76C314.815 98.76 312.355 99.38 310.195 100.62C308.035 101.86 306.335 103.64 305.095 105.96C303.895 108.28 303.295 110.98 303.295 114.06Z" fill="white"/>
</svg>
